<svg width="61" height="12" viewBox="0 0 61 12" fill="none" xmlns="http://www.w3.org/2000/svg">
<path d="M0 10.8955H11.9444L10.2381 4.41142C10.2381 4.41142 20.8175 1 30.0318 1C39.2461 1 49.8254 4.4127 49.8254 4.4127L48.1191 10.8955H60.0636" stroke="#15515C"/>
<path d="M12.5507 6.63331C12.4931 6.43724 12.4633 6.33921 12.4036 6.14315C12.1948 5.44201 12.263 5.00513 12.6125 4.83037C14.2151 4.56398 15.0164 4.42972 16.619 4.16333C17.026 4.22513 17.3095 4.65775 17.4693 5.45693C17.5375 5.79577 17.5716 5.96626 17.6377 6.30511C17.6654 6.53528 17.6057 6.67806 17.4565 6.72921C16.7916 6.79954 16.4592 6.83577 15.7942 6.90609C15.6302 6.88904 15.5129 6.77183 15.4447 6.55872C15.4192 6.45003 15.4064 6.39462 15.3787 6.28593C15.1272 6.31577 15.0015 6.33282 14.75 6.36266C14.7777 6.46921 14.7905 6.52462 14.8182 6.63118C14.8544 6.77183 14.912 6.85921 14.9929 6.89757C16.0479 7.19806 16.5678 7.36002 17.5972 7.71166C17.821 7.89281 18.017 8.34034 18.1854 9.04788C18.2301 9.27165 18.2514 9.3846 18.2962 9.60837C18.456 10.4097 18.3729 10.8743 18.049 10.9979C16.5785 10.9979 15.8454 10.9979 14.3749 10.9979C13.9934 10.8849 13.6951 10.4821 13.4862 9.78099C13.3967 9.48263 13.3541 9.33558 13.2646 9.03722C13.222 8.8369 13.271 8.71329 13.4159 8.6728C14.068 8.63018 14.3941 8.60673 15.0441 8.56411C15.2061 8.58755 15.3211 8.70477 15.3915 8.91575C15.4192 9.0223 15.432 9.07771 15.4597 9.18427C15.7026 9.17148 15.822 9.16722 16.0649 9.15443C16.0393 9.04575 16.0265 8.99034 15.9988 8.88165C15.9647 8.73886 15.9093 8.64722 15.8305 8.60673C14.799 8.25723 14.279 8.09739 13.222 7.79904C12.9897 7.6392 12.7659 7.25134 12.5507 6.63331Z" fill="#1F7A8C"/>
<path d="M21.0432 5.61041C20.0223 5.73615 19.513 5.79795 18.4922 5.92156C18.2684 5.93008 18.1214 5.85336 18.0553 5.69352C17.9445 5.11599 17.8891 4.82616 17.7804 4.24862C17.7847 4.07813 17.8976 3.96518 18.1214 3.90977C19.7964 3.63059 20.634 3.49207 22.3069 3.21289C22.7054 3.29174 22.9569 3.78829 23.0613 4.69829C23.0912 4.96042 23.1061 5.09255 23.1381 5.35468C23.1636 5.83631 23.1253 6.19008 23.0251 6.41385C22.0704 7.46449 21.6058 7.96318 20.7064 8.903C21.6889 8.85399 22.1812 8.82841 23.1636 8.7794C23.3789 8.79005 23.5153 8.88596 23.5685 9.06923C23.6431 9.7171 23.6815 10.041 23.7561 10.691C23.7454 10.8764 23.6367 10.9787 23.43 10.9979C21.8956 10.9979 21.1263 10.9979 19.5919 10.9979C19.2189 10.8679 18.9525 10.4012 18.7991 9.58923C18.7543 9.3548 18.733 9.23759 18.6883 9.00317C18.635 8.57481 18.652 8.26154 18.7415 8.06334C19.6345 7.13843 20.0948 6.64827 21.0432 5.61041Z" fill="#1F7A8C"/>
<path d="M24.8089 10.9979C24.4445 10.8508 24.2101 10.3202 24.1099 9.39955C23.9032 7.49005 23.7988 6.53531 23.5921 4.62582C23.4919 3.70517 23.624 3.14255 23.9906 2.93157C25.5932 2.66518 26.3945 2.53092 27.9971 2.26453C28.3871 2.36043 28.6066 2.92091 28.6578 3.93959C28.7622 6.05367 28.8155 7.11285 28.9199 9.22693C28.971 10.2456 28.824 10.8381 28.483 10.9979C27.0125 10.9979 26.2794 10.9979 24.8089 10.9979ZM26.7632 8.59824C26.6545 7.13629 26.6012 6.40531 26.4925 4.94336C26.2347 4.97532 26.1047 4.99024 25.8468 5.02221C25.964 6.46498 26.0237 7.1853 26.1409 8.62808C26.3902 8.61742 26.5138 8.61103 26.7632 8.59824Z" fill="#1F7A8C"/>
<path d="M29.4782 10.4864C29.361 7.85658 29.2459 5.22463 29.1287 2.59482C29.1329 2.29859 29.216 2.11532 29.3759 2.05564C30.06 1.99597 30.4052 2.01942 31.085 2.13237C31.247 2.20482 31.3408 2.3881 31.3642 2.6822C31.4175 5.00726 31.4431 6.17085 31.4942 8.49592C32.2081 8.53215 32.564 8.54919 33.278 8.58542C33.4911 8.61739 33.6147 8.7346 33.6488 8.9328C33.6488 9.62755 33.6488 9.97492 33.6509 10.6697C33.619 10.8679 33.4975 10.9766 33.2908 11C31.8736 11 31.166 11 29.7488 11C29.5954 10.951 29.5059 10.7805 29.4782 10.4864Z" fill="#1F7A8C"/>
<path d="M34.3883 10.9979C34.2413 10.9552 34.1603 10.7954 34.1454 10.5184C34.156 8.05265 34.1667 5.58907 34.1774 3.12335C34.1965 2.85056 34.286 2.70565 34.448 2.6886C35.1342 2.80368 35.4773 2.86122 36.1657 2.97417C36.3255 3.04237 36.4108 3.21073 36.4214 3.47499C36.3554 5.82988 36.2893 8.18265 36.2232 10.5375C36.1998 10.7997 36.1124 10.9531 35.9654 10.9936C35.3324 10.9979 35.017 10.9979 34.3883 10.9979Z" fill="#1F7A8C"/>
<path d="M36.9456 10.9978C36.7986 10.9573 36.7218 10.806 36.7155 10.546C36.7943 8.21883 36.8732 5.89164 36.9541 3.56232C36.9818 3.30445 37.0756 3.17019 37.2376 3.15527C37.8961 3.26396 38.2243 3.31937 38.8828 3.43019C39.0426 3.48986 39.1428 3.61773 39.1854 3.81592C39.4028 4.6087 39.5094 5.00083 39.7182 5.7723C39.7672 5.07116 39.7907 4.71952 39.8397 4.01838C39.8738 3.77756 39.9739 3.6497 40.138 3.63904C40.8243 3.75412 41.1674 3.81166 41.8557 3.92461C42.0134 3.98854 42.0902 4.13772 42.0838 4.37215C41.8792 6.44574 41.6725 8.52146 41.4679 10.595C41.4274 10.8273 41.3336 10.9616 41.1823 10.9978C40.5792 10.9978 40.2766 10.9978 39.6735 10.9978C39.5285 10.9659 39.4369 10.8572 39.4007 10.6696C39.2089 9.928 39.1087 9.55079 38.9063 8.78785C38.8636 9.49964 38.8423 9.85554 38.7976 10.5673C38.7656 10.8146 38.6761 10.9573 38.5248 10.9978C37.8897 10.9978 37.5764 10.9978 36.9456 10.9978Z" fill="#1F7A8C"/>
<path d="M42.6145 4.45741C42.6571 4.23151 42.7594 4.11429 42.9256 4.10364C43.6119 4.21872 43.955 4.27626 44.6433 4.38921C44.7989 4.45101 44.8713 4.59167 44.8586 4.80904C44.7392 5.65084 44.6795 6.07067 44.5602 6.91033C44.6305 6.91673 44.6646 6.92099 44.7328 6.92951C44.8458 6.92525 44.9182 6.86984 44.9502 6.76329C45.1804 6.01739 45.2976 5.64871 45.532 4.9156C45.5831 4.70675 45.6897 4.59806 45.8559 4.59167C46.5422 4.70675 46.8853 4.76429 47.5736 4.87724C47.7292 4.93691 47.7953 5.06691 47.774 5.26936C47.4713 6.08132 47.32 6.49263 47.0259 7.32164C46.8831 7.61574 46.6231 7.79902 46.2438 7.87147C46.5869 8.00573 46.7702 8.22737 46.8 8.53638C46.7787 9.38884 46.7659 9.8108 46.7361 10.6483C46.6807 10.8487 46.5763 10.9637 46.4228 10.9957C45.792 10.9957 45.4787 10.9957 44.8479 10.9957C44.7051 10.9616 44.6433 10.8401 44.6582 10.627C44.6604 9.8726 44.6604 9.49326 44.6582 8.72819C44.6561 8.6195 44.605 8.55343 44.4984 8.52999C44.4302 8.52573 44.3961 8.5236 44.3279 8.51934C44.2086 9.36113 44.1489 9.78097 44.0296 10.6206C43.9827 10.8359 43.8825 10.9616 43.7312 10.9957C43.1004 10.9957 42.7871 10.9957 42.1563 10.9957C42.0135 10.9595 41.9453 10.8273 41.9517 10.5972C42.1776 8.55344 42.395 6.50542 42.6145 4.45741Z" fill="#1F7A8C"/>
</svg>
